<svg xmlns="http://www.w3.org/2000/svg" viewBox="0 0 391.64 548.57"><defs><style>.cls-1{fill:#fdfdfe;}.cls-2{fill:#0170b9;}.cls-3{fill:#010101;}.cls-4{fill:#29a8de;}.cls-5{fill:#cecece;}.cls-6{fill:#fefefe;}</style></defs><title>css-logo</title><g id="Layer_2" data-name="Layer 2"><g id="Layer_1-2" data-name="Layer 1"><path class="cls-1" d="M391.7,274.66q0,135.91.05,271.83c0,2-.45,2.46-2.46,2.46q-193.37-.09-386.72,0c-2,0-2.46-.45-2.46-2.46Q.2,274.66.11,2.84C.11.83.57.38,2.57.38q193.37.07,386.72,0c2,0,2.46.45,2.46,2.46Q391.66,138.76,391.7,274.66ZM195.89,106H4.15c-3.8,0-3.76,0-3.31,3.83C3,128.12,4.37,146.54,6.05,164.93c1.38,15.1,2.63,30.21,4,45.32q2.28,25.86,4.6,51.72,2,22,4,44,2.31,25.59,4.63,51.17,2,22.39,3.94,44.79,2.31,26.26,4.64,52.52c1.42,15.82,2.9,31.62,4.33,47.44A2.07,2.07,0,0,0,38,504c4.32,1.09,8.6,2.35,12.88,3.56q71.22,20.13,142.42,40.29a7.61,7.61,0,0,0,4.41,0q17.61-5,35.23-9.94,59.8-16.78,119.64-33.48c2.4-.67,3.12-1.74,3.32-4.14,1.19-14.58,2.58-29.14,3.89-43.72q2.34-26.12,4.65-52.24c1.33-15,2.6-30.05,3.94-45.06q2.28-25.59,4.63-51.18,2-22,3.95-44,2.29-25.59,4.59-51.18T386,161.73c1.54-17.5,3-35,4.71-52.51.26-2.7-.3-3.35-3.07-3.34Q291.76,106,195.89,106Zm-.29-30.53v0c11.33,0,22.67,0,34,0,1.88,0,2.58-.27,2.56-2.41q-.21-19.41-.07-38.82c0-2.14-.7-2.43-2.57-2.44-14.91,0-29.81-.19-44.72-.3-5.74,0-5.66,0-5.77-5.86,0-2,.34-2.69,2.55-2.68,16.07.06,32.14-.07,48.2,0,1.88,0,2.4-.47,2.35-2.35-.12-5.53-.14-11.07,0-16.6,0-2-.44-2.48-2.46-2.47q-34,.11-68,0c-2,0-2.5.45-2.48,2.47q.12,19.94,0,39.89c0,2.26.57,2.75,2.77,2.74,15.18-.1,30.35,0,45.52-.08,1.89,0,2.8.27,2.55,2.43a34.43,34.43,0,0,0-.13,6.42c.17,2.18-.72,2.55-2.71,2.54-15.08-.06-30.17,0-45.25,0-2,0-2.82.31-2.72,2.56.2,4.19.2,8.4,0,12.58-.11,2.24.74,2.54,2.69,2.53C173.1,75.37,184.35,75.42,195.6,75.42Zm80.87.06v0c11.34,0,22.67,0,34,0,1.88,0,2.57-.28,2.54-2.41q-.19-19.28,0-38.56c0-2-.46-2.51-2.49-2.51-14.82,0-29.63-.14-44.45-.22-6.1,0-6,0-6.29-6-.1-2.16.35-2.85,2.66-2.83,16,.09,32,0,47.94,0,2,0,2.76-.32,2.69-2.54-.18-5.53-.14-11.07,0-16.6,0-1.82-.36-2.39-2.3-2.38q-34,.12-68,0c-2.27,0-2.55.79-2.54,2.72,0,13.3,0,26.6-.15,39.9,0,2.26.76,2.53,2.69,2.52,15.18-.07,30.35,0,45.53-.08,1.79,0,2.57.33,2.4,2.3a39.34,39.34,0,0,0,0,6.69c.18,2.06-.55,2.46-2.51,2.45-15.17-.06-30.35,0-45.52,0-2,0-2.59.52-2.51,2.51.14,4.1.15,8.22,0,12.31-.09,2.15.39,2.84,2.71,2.81C254,75.4,265.22,75.48,276.47,75.48ZM78.82,38.27h0v34.8c0,1.23-.31,2.36,1.76,2.35q34.13-.09,68.26,0c1.45,0,1.79-.47,1.77-1.84,0-4.72-.1-9.46.08-14.18.07-2.13-.59-2.64-2.68-2.64-14.9.05-29.8-.12-44.7,0-2.48,0-2.91-.73-2.85-3q.3-13.78.27-27.57c0-2,.63-2.27,2.41-2.27,14.81.06,29.62-.08,44.43.05,2.68,0,3.23-.76,3.15-3.24-.18-5.62-.12-11.24,0-16.86.05-1.91-.33-2.53-2.42-2.52q-33.6.17-67.19.05c-2.21,0-2.37.78-2.36,2.58C78.86,15.43,78.82,26.85,78.82,38.27Z" transform="translate(-0.11 -0.38)"/><path class="cls-2" d="M195.89,106q95.88,0,191.75-.07c2.77,0,3.33.64,3.07,3.34-1.67,17.5-3.17,35-4.71,52.51q-2.26,25.61-4.49,51.19t-4.59,51.18q-2,22-3.95,44-2.31,25.59-4.63,51.18c-1.34,15-2.61,30-3.94,45.06q-2.29,26.12-4.65,52.24c-1.31,14.58-2.7,29.14-3.89,43.72-.2,2.4-.92,3.47-3.32,4.14Q292.69,521.05,232.9,537.9q-17.62,5-35.23,9.94a7.61,7.61,0,0,1-4.41,0q-71.2-20.18-142.42-40.29C46.56,506.36,42.28,505.1,38,504a2.07,2.07,0,0,1-1.85-2.14c-1.43-15.82-2.91-31.62-4.33-47.44q-2.37-26.25-4.64-52.52-2-22.4-3.94-44.79Q20.91,331.53,18.57,306q-2-22-4-44-2.31-25.86-4.6-51.72c-1.34-15.11-2.59-30.22-4-45.32C4.37,146.54,3,128.12.84,109.78.39,105.94.35,106,4.15,106ZM195,413.05c-8.45-1.1-16.77-2.91-25.14-4.49-11.33-2.13-22.64-4.37-34-6.49-2.49-.47-3.78-1.56-4-4.27-.79-10.56-1.88-21.1-2.61-31.67-.36-5.19.68-4.16-5.17-5.17a5.43,5.43,0,0,0-1.07,0c-13.47,0-26.95.08-40.43,0-2,0-2.27.74-2.2,2.52.5,11.93,1.53,23.81,2.65,35.7s2.55,23.5,4.28,35.19c.27,1.83,1,2.26,2.55,2.67,28.79,7.67,57.61,15.22,86.55,22.32,6.36,1.56,12.59,3.75,19.16,4.45-.25,2.77.55,5.48.55,8.24q0,18.6,0,37.22c0,4.52,0,4.59,4.44,3.41q21.6-5.79,43.17-11.68c24.73-6.78,49.41-13.72,74.19-20.33,4.88-1.31,8.07-2.55,8.13-8.76.08-7.3,1.32-14.62,1.87-22,.33-4.51.74-9,1.15-13.52.67-7.23,1.39-14.46,2-21.69.43-4.86.72-9.73,1.16-14.59.65-7.15,1.42-14.28,2.05-21.43.45-5.12.62-10.28,1.17-15.39q1.23-11.37,2.07-22.77c.32-4.42.73-8.84,1.13-13.25.68-7.41,1.39-14.82,2.06-22.23.42-4.6.75-9.2,1.18-13.79.66-7,1.43-13.92,2.05-20.89s1.08-13.79,1.68-20.68q1-11.25,2.07-22.49c.48-5,.68-10.11,1.24-15.12.78-6.87,1.17-13.77,2-20.64.55-4.84.72-9.73,1.15-14.59.66-7.41,1.39-14.81,2.09-22.22.43-4.59.72-9.2,1.33-13.77.44-3.24.53-3.36-2.71-3.36q-76.86,0-153.72,0c-2.34,0-3,.6-3,3,.11,14.55,0,29.1,0,43.65l-16.59.07a.75.75,0,0,0-.49,0c-1.07,0-2.14,0-3.21,0q-55.31,0-110.61,0c-2.53,0-3.25.72-3,3.12.62,5.84,1,11.7,1.65,17.54.85,7.68,1.85,15.35,2.8,23,.15,1.13.55,1.85,2,1.86,5.18,0,10.35.41,15.52.42q38.83.11,77.66.07h28.31l.11.89c-1,.46-2,.93-3,1.38-31.38,14.06-63.1,27.32-94.6,41.08-5.94,2.6-11.89,5.19-17.81,7.84-1,.44-2.05.87-2,2.44,0,7.32.75,14.59,1.46,21.86.78,8.06,1.71,16.1,2.33,24.17.17,2.11.69,2.71,2.78,2.66q14.06-.33,28.11-.39Q137.3,332,167,332c9.73,0,19.46,0,29.18,0v76.24C196.19,410,196.27,411.67,195,413.05Z" transform="translate(-0.11 -0.38)"/><path class="cls-3" d="M195.6,75.42c-11.25,0-22.5,0-33.74,0-2,0-2.8-.29-2.69-2.53.21-4.18.21-8.39,0-12.58-.1-2.25.75-2.56,2.72-2.56,15.08.06,30.17,0,45.25,0,2,0,2.88-.36,2.71-2.54a34.43,34.43,0,0,1,.13-6.42c.25-2.16-.66-2.44-2.55-2.43-15.17.07-30.34,0-45.52.08-2.2,0-2.8-.48-2.77-2.74q.19-20,0-39.89c0-2,.49-2.48,2.48-2.47q34,.14,68,0c2,0,2.51.48,2.46,2.47-.16,5.53-.14,11.07,0,16.6.05,1.88-.47,2.36-2.35,2.35-16.06,0-32.13.1-48.2,0-2.21,0-2.59.69-2.55,2.68.11,5.82,0,5.82,5.77,5.86,14.91.11,29.81.26,44.72.3,1.87,0,2.59.3,2.57,2.44q-.15,19.41.07,38.82c0,2.14-.68,2.42-2.56,2.41-11.33-.09-22.67,0-34,0Z" transform="translate(-0.11 -0.38)"/><path class="cls-3" d="M276.47,75.48c-11.25,0-22.5-.08-33.74.07-2.32,0-2.8-.66-2.71-2.81.17-4.09.16-8.21,0-12.31-.08-2,.48-2.52,2.51-2.51,15.17.08,30.35,0,45.52,0,2,0,2.69-.39,2.51-2.45a39.34,39.34,0,0,1,0-6.69c.17-2-.61-2.31-2.4-2.3-15.18.07-30.35,0-45.53.08-1.93,0-2.72-.26-2.69-2.52.17-13.3.18-26.6.15-39.9,0-1.93.27-2.73,2.54-2.72q34,.15,68,0c1.94,0,2.34.56,2.3,2.38-.12,5.53-.16,11.07,0,16.6.07,2.22-.72,2.54-2.69,2.54-16-.06-32,0-47.94,0-2.31,0-2.76.67-2.66,2.83.28,6,.19,6,6.29,6,14.82.08,29.63.22,44.45.22,2,0,2.5.53,2.49,2.51q-.12,19.28,0,38.56c0,2.13-.66,2.42-2.54,2.41-11.34-.09-22.67,0-34,0Z" transform="translate(-0.11 -0.38)"/><path class="cls-3" d="M78.82,38.27c0-11.42,0-22.84,0-34.26,0-1.8.15-2.58,2.36-2.58q33.6.14,67.19-.05c2.09,0,2.47.61,2.42,2.52-.13,5.62-.19,11.24,0,16.86.08,2.48-.47,3.27-3.15,3.24-14.81-.13-29.62,0-44.43-.05-1.78,0-2.42.3-2.41,2.27q0,13.78-.27,27.57c-.06,2.24.37,3,2.85,3,14.9-.09,29.8.08,44.7,0,2.09,0,2.75.51,2.68,2.64-.18,4.72-.13,9.46-.08,14.18,0,1.37-.32,1.84-1.77,1.84q-34.14-.09-68.26,0c-2.07,0-1.76-1.12-1.76-2.35V38.27Z" transform="translate(-0.11 -0.38)"/><path class="cls-4" d="M196.17,184.11c0-14.55.06-29.1,0-43.65,0-2.38.66-3,3-3q76.86.09,153.72,0c3.24,0,3.15.12,2.71,3.36-.61,4.57-.9,9.18-1.33,13.77-.7,7.41-1.43,14.81-2.09,22.22-.43,4.86-.6,9.75-1.15,14.59-.78,6.87-1.17,13.77-2,20.64-.56,5-.76,10.08-1.24,15.12q-1.08,11.24-2.07,22.49c-.6,6.89-1.06,13.79-1.68,20.68s-1.39,13.93-2.05,20.89c-.43,4.59-.76,9.19-1.18,13.79-.67,7.41-1.38,14.82-2.06,22.23-.4,4.41-.81,8.83-1.13,13.25q-.83,11.4-2.07,22.77c-.55,5.11-.72,10.27-1.17,15.39-.63,7.15-1.4,14.28-2.05,21.43-.44,4.86-.73,9.73-1.16,14.59-.65,7.23-1.37,14.46-2,21.69-.41,4.51-.82,9-1.15,13.52-.55,7.34-1.79,14.66-1.87,22-.06,6.21-3.25,7.45-8.13,8.76-24.78,6.61-49.46,13.55-74.19,20.33q-21.57,5.91-43.17,11.68c-4.42,1.18-4.44,1.11-4.44-3.41q0-18.61,0-37.22c0-2.76-.8-5.47-.55-8.24l1.13-.59a10.19,10.19,0,0,0,1.58-.16c9.46-2.44,18.93-4.86,28.37-7.36,24.81-6.57,49.6-13.2,74.43-19.71,2-.53,3-1.35,3.07-3.46.17-3.55.49-7.11.82-10.65,1-10.82,2.09-21.62,3.06-32.44,1-11,1.87-22,2.82-33,1-11.89,2.14-23.77,3.06-35.67.87-11.28,1.41-22.58,2.37-33.86.23-2.63-.18-3.2-2.84-3.19-32.13.1-64.26.06-96.38.06H213.8a6.84,6.84,0,0,1,2.82-2.16c21.41-10.31,43.49-19.1,65.12-28.9,11.67-5.28,23.41-10.4,35.18-15.45,3-1.29,3.9-3.48,4.09-6.44.34-5.15.82-10.29,1.27-15.44.8-9.23,1.58-18.45,2.47-27.67.24-2.42-.48-3.09-3-3.09q-51,.07-102-.07l-23.55,0A1.39,1.39,0,0,0,196.17,184.11Z" transform="translate(-0.11 -0.38)"/><path class="cls-5" d="M196.17,184.11a1.39,1.39,0,0,1,.06.4q0,61.77,0,123.53,0,11.88.59,23.74l-.59.25c-9.72,0-19.45-.06-29.18,0q-29.73,0-59.45.16-14.05.06-28.11.39c-2.09.05-2.61-.55-2.78-2.66-.62-8.07-1.55-16.11-2.33-24.17-.71-7.27-1.41-14.54-1.46-21.86,0-1.57,1-2,2-2.44,5.92-2.65,11.87-5.24,17.81-7.84,31.5-13.76,63.22-27,94.6-41.08,1-.45,2-.92,3-1.38l-.11-.89H161.93q-38.84,0-77.66-.07c-5.17,0-10.34-.38-15.52-.42-1.48,0-1.88-.73-2-1.86-1-7.67-2-15.34-2.8-23-.64-5.84-1-11.7-1.65-17.54-.25-2.4.47-3.13,3-3.12q55.31.12,110.61,0c1.07,0,2.14,0,3.21,0h.49Z" transform="translate(-0.11 -0.38)"/><path class="cls-5" d="M196.76,463.21l-1.13.59c-6.57-.7-12.8-2.89-19.16-4.45-28.94-7.1-57.76-14.65-86.55-22.32-1.55-.41-2.28-.84-2.55-2.67q-2.59-17.53-4.28-35.19c-1.12-11.89-2.15-23.77-2.65-35.7-.07-1.78.18-2.53,2.2-2.52,13.48.06,27,0,40.43,0a5.43,5.43,0,0,1,1.07,0c5.85,1,4.81,0,5.17,5.17.73,10.57,1.82,21.11,2.61,31.67.2,2.71,1.49,3.8,4,4.27,11.34,2.12,22.65,4.36,34,6.49,8.37,1.58,16.69,3.39,25.14,4.49l1.19.36C196.38,430,195.75,446.62,196.76,463.21Z" transform="translate(-0.11 -0.38)"/><path class="cls-4" d="M196.21,413.41l-1.19-.36c1.25-1.38,1.17-3.1,1.18-4.78V332l.59-.25c1,0,2,.1,2.93.1,18.57,0,37.13.07,55.69,0,2.29,0,3.28.31,3,3-.72,8.34-1.14,16.71-1.67,25.07-.71,11-1.45,22.06-2.06,33.09-.1,1.77-.77,2.36-2.39,2.83q-16,4.65-31.89,9.53C212.31,407.9,203.93,409.66,196.21,413.41Z" transform="translate(-0.11 -0.38)"/><path class="cls-4" d="M179.58,184.18h-.49A.75.75,0,0,1,179.58,184.18Z" transform="translate(-0.11 -0.38)"/><path class="cls-6" d="M196.21,413.41c7.72-3.75,16.1-5.51,24.24-8q15.9-4.9,31.89-9.53c1.62-.47,2.29-1.06,2.39-2.83.61-11,1.35-22.06,2.06-33.09.53-8.36.95-16.73,1.67-25.07.23-2.69-.76-3-3-3-18.56.07-37.12,0-55.69,0-1,0-1.95-.06-2.93-.1q-.61-11.86-.59-23.74.08-61.77,0-123.53l23.55,0q51,.07,102,.07c2.49,0,3.21.67,3,3.09-.89,9.22-1.67,18.44-2.47,27.67-.45,5.15-.93,10.29-1.27,15.44-.19,3-1.07,5.15-4.09,6.44-11.77,5.05-23.51,10.17-35.18,15.45-21.63,9.8-43.71,18.59-65.12,28.9a6.84,6.84,0,0,0-2.82,2.16h3.32c32.12,0,64.25,0,96.38-.06,2.66,0,3.07.56,2.84,3.19-1,11.28-1.5,22.58-2.37,33.86-.92,11.9-2,23.78-3.06,35.67-1,11-1.83,22-2.82,33-1,10.82-2,21.62-3.06,32.44-.33,3.54-.65,7.1-.82,10.65-.1,2.11-1,2.93-3.07,3.46-24.83,6.51-49.62,13.14-74.43,19.71-9.44,2.5-18.91,4.92-28.37,7.36a10.19,10.19,0,0,1-1.58.16C195.75,446.62,196.38,430,196.21,413.41Z" transform="translate(-0.11 -0.38)"/></g></g></svg>