<svg xmlns="http://www.w3.org/2000/svg" viewBox="0 0 478.77 121.72"><defs><style>.cls-1{fill:#373736;}.cls-2{fill:#383837;}.cls-3{fill:#186daf;}.cls-4{fill:#2072b2;}.cls-5{fill:#fcfcfc;}</style></defs><title>jquery</title><g id="Layer_2" data-name="Layer 2"><g id="Layer_1-2" data-name="Layer 1"><path class="cls-1" d="M195.93,83c-7.63-.46-16.63.91-25.58-.66-12.38-2.17-20.5-9.68-21.43-22.1C147.5,41.43,152.16,24.17,166,10.49c12.93-12.8,39.34-14.07,52-2.8,8.93,8,11.21,18.15,9.16,29.51-1.54,8.52-4.58,16.64-7.8,24.64-1.34,3.33-1.33,5,2.81,4.48,4.48-.59,4.89,1.18,3.77,5.14C222.65,83,222.81,83,210.74,83Zm-7.34-17.37c11.06,0,11.06,0,14.14-10.49.6-2.07,1.25-4.13,1.79-6.22,1.53-5.92,3.83-11.69,3.57-18-.32-7.47-3.84-11.63-11.15-13.11-9.33-1.89-17.64,1.89-22.33,10.21A48.53,48.53,0,0,0,168.69,49c-.81,12.06,3.77,16.67,15.91,16.68Z"/><path class="cls-1" d="M336.85,58c-5.32,0-10.65,0-16,0-1.86,0-4.43-.87-5.07,1.83a6.69,6.69,0,0,0,2.7,7.49c2.43,1.66,5.24,2,8.11,2,8.15,0,16.31.07,24.46,0,2.82,0,3.74.48,3,3.69-2.45,10.16-2.28,10.28-12.75,10.17-9.31-.09-18.63.56-27.89-.91-12.07-1.91-17.28-8.6-16.09-20.79.84-8.48,2.58-16.77,6.21-24.51,7.6-16.22,30.36-24,46.5-16.06,7.75,3.81,9.93,10.73,10.4,18.53.31,5-.69,9.92-1.46,14.85-.45,2.94-1.8,3.87-4.64,3.8C348.5,57.9,342.68,58,336.85,58Zm-5.12-12.33V46a63.6,63.6,0,0,0,6.48-.05c1.81-.19,4.43,1.25,5.25-1.34a7.34,7.34,0,0,0-1.95-7.83c-3.88-3.51-8.63-3-13.24-2.07a11.49,11.49,0,0,0-9.07,7.67c-.74,2.08-.25,3.26,2.07,3.29C324.76,45.69,328.24,45.67,331.73,45.67Z"/><path class="cls-1" d="M265.67,83c-6.14-.11-12.33.77-18.42-.5-8-1.67-11.77-5.76-12.78-13.78-1.27-10.12,1.59-19.8,3.22-29.61.94-5.74,2.13-11.43,3.14-17.16.43-2.43,1.39-3.61,4.22-3.72,14.18-.54,14.22-.63,11.57,13.19-1.47,7.66-3.16,15.29-4.72,22.94-1.89,9.3.16,11.79,9.65,11.79,9.18,0,9.17,0,11.15-9,2.56-11.68,5.25-23.33,7.62-35,.59-2.87,1.67-4.05,4.57-3.81,4.28.36,10-1.79,12.47.84,2.22,2.37-.84,7.73-1.67,11.75C292.38,47,288.87,63,285.64,79.16c-.62,3.12-1.95,4-5,3.91C275.66,82.83,270.66,83,265.67,83Z"/><path class="cls-2" d="M429.94,48c8.13-12,16-23.24,23.53-34.79,2.61-4,5.35-6.38,10.42-5.64,3.1.45,6.32,0,9.47.12,1.76.08,4.2-1,5.14.63,1.06,1.81-1.35,3.11-2.36,4.46-11.76,15.72-23.37,31.55-35.54,46.94-4.75,6-7.11,12.64-8.6,19.81-.58,2.82-1.81,3.88-4.71,3.74-4.31-.22-8.65-.07-13-.06-1.59,0-3.56-.16-2.53-2.29,6.35-13.23-.08-25.26-3.28-37.59-1.48-5.69-1.59-5.66,4.42-5.67h2C426.06,37.61,426.06,37.61,429.94,48Z"/><path class="cls-2" d="M396.17,18.32c5.65,0,11.32-.17,17,0,8.15.31,12.74,5.52,12.6,13.63-.05,2.86-2,2.15-3.44,2.15-9.49,0-19,.18-28.45,0-3.36-.08-4.61,1.1-5.22,4.29-2.57,13.37-5.5,26.67-8,40.05-.68,3.66-2,5.15-5.81,4.66a49.11,49.11,0,0,0-9.47,0c-2.89.19-3.35-.93-2.81-3.5q6.22-29.22,12.26-58.48c.47-2.28,1.79-2.84,3.9-2.81,5.82.09,11.65,0,17.47,0Z"/><path class="cls-1" d="M109,110.18c-13.93-.46-13.76-.43-11.14-12.48,1-4.49,2-6.91,7.58-5.76,5.32,1.09,6.87-4,7.92-7.89,2-7.54,3.51-15.22,5.18-22.84,1.43-6.49,2.86-13,4.19-19.48.58-2.82,1.79-4.42,5-4.16,4,.32,8,.37,12,.38,2.36,0,2.69.89,2.2,3.09-3.66,16.36-7.14,32.77-10.8,49.14a41.62,41.62,0,0,1-2.74,7.47C124.46,106.62,117.58,110.81,109,110.18Z"/><path class="cls-3" d="M83.43,69.63c-7.47,13.18-19.36,18.7-34,19.31-19,.8-38-11.77-46-30.32C-2.88,43.74-.52,29,10.44,18,4.52,40.81,12.5,58,31.15,70,48.24,80.91,66,80.82,83.43,69.63Z"/><path class="cls-3" d="M86.37,46.58c-5,9.88-13.41,14.25-24,14.55C47,61.57,34.2,53.63,28.42,40.3,24,30.08,24.68,20.41,32.23,11.49c-3,15.56,2.58,27.57,15.4,35.87S73.51,56,86.37,46.58Z"/><path class="cls-4" d="M380.65,105.9c-3.46-.11-4.73,1.41-5.06,4.12-.22,1.8-.74,3.56-1,5.36-.39,2.17-2.05,1.82-3.49,1.77-2.27-.07-1.5-1.74-1.34-2.91.24-1.8.81-3.56,1-5.36.1-.94,1.25-2.44-.63-2.8a2.58,2.58,0,0,0-3.17,1.79,58.15,58.15,0,0,0-1.4,6.8c-.37,2.52-2,2.81-4,2.47-2.69-.46-.85-2.34-.89-3.54a15.89,15.89,0,0,1,.74-3.38c2-9.86,4.61-11.51,14.61-8.74,2,.57,3.46-.59,5.19-.81,3.45-.43,5.21.67,4.58,4.32-.6,3.42-1.48,6.8-2,10.23-.4,2.61-2.27,2-3.77,1.89-2.29-.19-1.22-1.93-1-3C379.39,111.49,380,108.93,380.65,105.9Z"/><path class="cls-2" d="M134.52,33.7c-9.91,0-9.64,0-7.68-9.65.93-4.65,2.85-6.67,7.55-5.76a7.4,7.4,0,0,0,1.49,0c11,0,10.79-.06,8.89,10.5-.73,4-2.45,5.41-6.27,4.91A31.07,31.07,0,0,0,134.52,33.7Z"/><path class="cls-4" d="M83.32,30.27c-6.45,8.44-18,9.14-27.12,2.14-9-6.87-11.17-17.39-4.49-27-1.11,9.83,1.79,17.06,8.87,22.07S75.16,33.51,83.32,30.27Z"/><path class="cls-4" d="M185.11,108c4.25-.94,1.22-7.68,6.09-6.72,3.54.7,1.41,5.09,2.88,7.48,1.57-1.36,1.77-3.28,1.77-5,0-2.81,2-2.94,3.71-2.77,2.36.25,1.42,2.48,1.11,3.59-1.09,3.82-2.57,7.53-3.87,11.29-.72,2.07-2.46,1.16-3.81,1.35-1.55.23-2.53-.3-2.72-2a21.75,21.75,0,0,0-.76-3c-2.86,1-2.43,5.81-6.57,5.18-2-.3-3-.58-3-2.84.08-3.32-.09-6.66-.23-10-.07-1.72-.37-3.23,2.24-3.41s2.7,1.1,2.71,3A39,39,0,0,0,185.11,108Z"/><path class="cls-4" d="M328.87,116.94a3,3,0,0,0-1-.24c-3.13.24-7.34,3-8.23-2.65-1.06-6.86,2.54-12.85,7.92-13.31,2.77-.24,4.38-.87,4.5-3.77s2.14-3.36,4.13-2.93c2.69.59.83,2.61.59,3.9-.95,5.2-2.28,10.34-3.1,15.57C333.22,116.69,331.94,117.93,328.87,116.94ZM325,110.77c-.13,1.1-.81,2.61,1.21,2.35,3.25-.42,3.17-3.21,3.63-5.58.23-1.14.74-2.59-1-2.57C324.9,105,326,108.67,325,110.77Z"/><path class="cls-4" d="M394.44,117.38c-3.69.18-6.44-.53-7.11-4.29-.8-4.44,2-10.8,5.3-11.85,3-1,6.39-1.59,8.86,1,3.21,3.38,1.06,7.22,0,10.71S397.5,117.6,394.44,117.38Zm3.23-9.22c.34-1.92.18-3.32-1.69-3.22-3.33.18-3,3-3.38,5.2-.32,1.56-.36,3.3,1.94,3C397.76,112.74,397.22,109.85,397.67,108.16Z"/><path class="cls-4" d="M415.61,105.17c2.29-1.87,3.84-4.85,7.49-4.63,2.59.15,5.22.23,5.92,3.34.63,2.82-.83,4.82-3.37,6-1.75.78-3.59,1.36-5.59,2.11,1.58,2.08,3.07,1,4.47.59,1.2-.39,2.3-.68,2.84.88a2,2,0,0,1-1.31,2.78c-3.16,1.23-6.58,2.21-9.61.44s-1.24-4.72-1-7.29c.15-1.4,1.25-2.81.22-4.28Z"/><path class="cls-4" d="M343.66,117.4c-3.33.14-6.06-.62-6.79-4.34-.84-4.25,2.05-10.69,5.43-11.83,3.07-1,6.49-1.48,8.89,1,3.18,3.35,1,7.25-.07,10.76S347,117.5,343.66,117.4Zm3.82-9.13c.09-1.62.49-3.38-1.85-3.28-3.34.14-2.77,3.08-3.44,5.1-.57,1.68-.35,3.13,1.75,3.09C347.27,113.12,346.59,110,347.48,108.27Z"/><path class="cls-4" d="M268.16,112.52c1.65,1.27,3,.49,4.37,0,1.17-.4,2.28-.73,2.83.85a2,2,0,0,1-1.25,2.79c-3.15,1.26-6.57,2.21-9.6.48s-1.45-4.7-1-7.25c1.34-6.93,3.42-9.12,8.5-8.85,2.27.12,4.48.62,5,3.22s-.56,4.44-2.87,5.78C272.28,110.67,269.65,110.36,268.16,112.52Z"/><path class="cls-4" d="M236.92,112.49a6.22,6.22,0,0,0,5.5,0c1.21-.49,2.26-.59,2.82.92.64,1.73-.36,2.4-1.75,2.94-3,1.19-6.42,2-9.16.3-3-1.84-1.34-5.12-.79-7.82,1.39-6.71,3.79-8.9,9-8.26,2.08.25,4.05.87,4.45,3.28a4.77,4.77,0,0,1-2.55,5.46C242.28,110.39,240,111.2,236.92,112.49Z"/><path class="cls-4" d="M226.16,117.4c-3.45.17-4.72-1.24-4.17-4.55.49-3,2.51-5.81-.12-9.07-1.21-1.5,4.65-7.36,6.92-7.28,1.42,0,1.71.76,1.47,1.89-.27,1.31,0,2,1.42,2.56,3,1.22,1.11,3-.18,3.88-4.48,3-4.78,4.4-1.46,8.77a2.67,2.67,0,0,1,.35,2.29C229.48,117.7,227.53,117.13,226.16,117.4Z"/><path class="cls-4" d="M281.92,117.37a5.67,5.67,0,0,1-1.15,0c-1.4-.22-3.27.08-3.12-2.22s1.72-2,3.3-1.84c.93.11,2.1.57,2.64-.58s-.69-1.81-1.44-2.19c-3.92-2-3.23-5-1.7-8,1-2,7.19-2.68,9.28-1.41.95.57.86,1.29.71,2.1-.32,1.75-1.5,1.94-3,1.65-.92-.19-2.09-.69-2.6.54-.39.94.47,1.43,1.23,1.83,2.63,1.37,4.08,3.07,2.89,6.4S285.3,117.57,281.92,117.37Z"/><path class="cls-4" d="M298.66,111.81a20.94,20.94,0,0,1-2.41-.78c-3.33-1.62-4.65-4-3-7.64s4.85-2.82,7.72-2.69c1.3.06,3.14,0,2.7,2.47-.33,1.91-1.42,1.82-2.85,1.66-1-.11-2.48-1-2.89.71-.29,1.22,1.14,1.39,1.89,1.95,3.15,2.32,3.64,5.68,1.25,8.36-1.44,1.61-8.52,2.19-9.86.82-.72-.73-.46-1.51-.18-2.28a1.6,1.6,0,0,1,1.8-1.3C294.28,113.21,295.75,114.06,298.66,111.81Z"/><path class="cls-4" d="M254.46,114.41c1.31-6,2.73-12,3.86-18.06.52-2.75,2.56-2.53,4.16-2.31,2.06.29.91,2.08.7,3.17-1.16,5.88-2.52,11.71-3.62,17.6-.42,2.26-1.74,2.45-3.57,2.39C253.71,117.13,254.33,115.7,254.46,114.41Z"/><path class="cls-4" d="M216.61,99.51c3.87.46,3.52,2.77,2.9,5.41-.77,3.22-1.49,6.47-2,9.74-.42,2.49-2,2.77-4,2.5-2.81-.4-1.13-2.3-.92-3.41,1.09-5.79,2.47-11.53,3.54-17.32.41-2.19,1.8-2.46,3.52-2.64.88-.09,1.85-.15,1.79,1-.07,1.6-.06,3.43-2,4.17A16.64,16.64,0,0,1,216.61,99.51Z"/><path class="cls-4" d="M415.7,105.07c-4,1.12-6,3.76-6.15,7.9a12.4,12.4,0,0,1-.72,2.88c-.65,2.16-2.44,1.3-3.76,1.23-2-.1-1.09-1.58-.88-2.59.7-3.41,1.7-6.77,2.11-10.21.29-2.55,1.72-4.1,3.7-3.27s7-1.39,5.61,4.16Z"/><path class="cls-4" d="M201.35,115.3c.92-4.48,1.74-8.19,2.42-11.92.33-1.86,1.78-3,3-2.29,1.93,1.11,4.69-1.21,5.76,1.35.82,2-.62,3.29-2.49,4.15-3.57,1.64-2.74,5.32-3.46,8.2-.54,2.16-1.71,2.47-3.56,2.42C200.94,117.15,201.05,116,201.35,115.3Z"/><path class="cls-4" d="M309.79,113.9a9,9,0,0,1-5,7.79c-.47.23-1.59-1.14-.89-1.77,2.59-2.35-2.26-8.35,4.27-8.62C310.16,111.21,310.21,112.43,309.79,113.9Z"/><path class="cls-4" d="M432.35,117.22c-1.47-.12-3,.15-2.45-1.72s0-4.56,3.42-4.26c1.66.15,2.52.63,2.1,2.36S435,117.77,432.35,117.22Z"/><path class="cls-5" d="M188.59,65.63h-4c-12.14,0-16.72-4.62-15.91-16.68A48.53,48.53,0,0,1,174.61,28c4.69-8.32,13-12.1,22.33-10.21,7.31,1.48,10.83,5.64,11.15,13.11.26,6.29-2,12.06-3.57,18-.54,2.09-1.19,4.15-1.79,6.22C199.65,65.62,199.65,65.62,188.59,65.63Z"/><path class="cls-5" d="M331.73,45.67c-3.49,0-7,0-10.46,0-2.32,0-2.81-1.21-2.07-3.29a11.49,11.49,0,0,1,9.07-7.67c4.61-1,9.36-1.44,13.24,2.07a7.34,7.34,0,0,1,1.95,7.83c-.82,2.59-3.44,1.15-5.25,1.34a63.6,63.6,0,0,1-6.48.05Z"/><path class="cls-5" d="M325,110.77c1-2.1-.09-5.76,3.84-5.8,1.74,0,1.23,1.43,1,2.57-.46,2.37-.38,5.16-3.63,5.58C324.18,113.38,324.86,111.87,325,110.77Z"/><path class="cls-5" d="M397.67,108.16c-.45,1.69.09,4.58-3.13,5-2.3.3-2.26-1.44-1.94-3,.43-2.17,0-5,3.38-5.2C397.85,104.84,398,106.24,397.67,108.16Z"/><path class="cls-5" d="M347.48,108.27c-.89,1.74-.21,4.85-3.54,4.91-2.1,0-2.32-1.41-1.75-3.09.67-2,.1-5,3.44-5.1C348,104.89,347.57,106.65,347.48,108.27Z"/></g></g></svg>