<svg xmlns="http://www.w3.org/2000/svg" viewBox="0 0 132.16 36.28"><defs><style>.cls-1,.cls-2,.cls-3{fill:#112d4e;}.cls-2{font-size:18.77px;}.cls-2,.cls-3{font-family:Roboto-Regular, Roboto;}.cls-3{font-size:10.95px;}.cls-4{letter-spacing:-0.01em;}</style></defs><title>brand2-blue</title><g id="Layer_2" data-name="Layer 2"><g id="Layer_1-2" data-name="Layer 1"><path class="cls-1" d="M3.55,12.33c.3,1.32,1.24,1.89,2.76,1.89s2.16-.6,2.16-1.55-.63-1.53-2.87-2.05C2,9.78,1.15,8.48,1.15,6.71,1.15,4.43,2.86,2.88,6,2.88c3.48,0,4.86,1.87,5.05,3.79H8.16C8,5.86,7.57,5,5.88,5,4.74,5,4,5.46,4,6.39S4.6,7.67,6.71,8.16c3.81.9,4.65,2.32,4.65,4.16,0,2.39-1.81,4-5.27,4S1,14.72.7,12.33Z" transform="translate(0 -2.88)"/><path class="cls-1" d="M16.2,5.39h-4V3.07H23V5.39H19V16.17H16.2Z" transform="translate(0 -2.88)"/><path class="cls-1" d="M33.77,10.52H27.5v3.33h6.91l-.33,2.32H24.76V3.07H34V5.39H27.5V8.2h6.27Z" transform="translate(0 -2.88)"/><path class="cls-1" d="M40.05,16.17,35.43,3.07h3l2,6c.59,1.83,1,3.38,1.34,4.72h0c.27-1.22.78-2.82,1.4-4.68l2-6.09h2.89l-4.74,13.1Z" transform="translate(0 -2.88)"/><path class="cls-1" d="M58.73,10.52H52.47v3.33h6.91L59,16.17H49.72V3.07H59V5.39H52.47V8.2h6.26Z" transform="translate(0 -2.88)"/><path class="cls-1" d="M61.41,16.17V3.07h3.51c1.63,2.94,4.66,8.25,5.26,9.67h0c-.14-1.36-.14-3.64-.14-5.79V3.07h2.56v13.1H69.31C67.9,13.61,64.55,7.52,63.9,6h0c.1,1.15.13,3.84.13,6.19v4Z" transform="translate(0 -2.88)"/><path class="cls-1" d="M80.35,3.07h2.8V8.92c.86-1,3.56-4,5.21-5.85h3.39L86.49,8.52l5.45,7.65H88.55l-4-5.82-1.38,1.32v4.5h-2.8Z" transform="translate(0 -2.88)"/><path class="cls-1" d="M93.33,3.07h2.83V13.85h6.52l-.32,2.32h-9Z" transform="translate(0 -2.88)"/><path class="cls-1" d="M107.2,3.07v13.1h-2.84V3.07Z" transform="translate(0 -2.88)"/><path class="cls-1" d="M119.34,10.52h-6.26v3.33H120l-.34,2.32h-9.32V3.07h9.29V5.39h-6.54V8.2h6.26Z" transform="translate(0 -2.88)"/><path class="cls-1" d="M124.78,10.93v5.24H122V3.07h5.75c2.86,0,4.39,1.57,4.39,3.6a3.13,3.13,0,0,1-1.9,3.1c.65.24,1.63.91,1.63,3.26v.64a10.46,10.46,0,0,0,.19,2.5h-2.69a9.23,9.23,0,0,1-.27-2.94V13c0-1.44-.36-2.11-2.47-2.11Zm0-2.26h2.38c1.55,0,2.15-.59,2.15-1.68s-.7-1.66-2.08-1.66h-2.45Z" transform="translate(0 -2.88)"/><text class="cls-2" transform="translate(0 31.19)">&lt;/</text><text class="cls-2" transform="translate(89.07 31.06)">&gt;</text><text class="cls-3" transform="translate(17.15 28.49)">web d<tspan class="cls-4" x="29.06" y="0">e</tspan><tspan x="34.79" y="0">veloper</tspan></text></g></g></svg>