<svg xmlns="http://www.w3.org/2000/svg" viewBox="0 0 270 72"><defs><style>.cls-1{fill:#272343;}.cls-2{fill:#fff;}</style></defs><title>logo3</title><g id="Layer_2" data-name="Layer 2"><g id="Layer_1-2" data-name="Layer 1"><rect class="cls-1" width="270" height="72" rx="15"/><path class="cls-2" d="M34.74,53.52l8.43-4.75v1.12l-7.33,4,7.33,4.22v1.1L34.74,54.4Z"/><path class="cls-2" d="M45.76,60.21l5.35-14.46h1L46.73,60.21Z"/><path class="cls-2" d="M54.92,45.94h8v1h-7v5h6.59v1H55.94v6.38h-1Z"/><path class="cls-2" d="M64.79,52.33c0-1.6,0-2.28,0-2.59h.93c0,.31,0,.91,0,2.13a3.63,3.63,0,0,1,3.31-2.36v1a3.43,3.43,0,0,0-3.31,3.76v4.94h-.95Z"/><path class="cls-2" d="M78.49,54.47c0,2.64-1.46,5-4.29,5-2.57,0-4.16-2.11-4.16-5,0-2.71,1.5-5,4.25-5C76.82,49.51,78.49,51.49,78.49,54.47Zm-7.44,0c0,2.26,1.21,4.09,3.22,4.09s3.22-1.69,3.22-4.09c0-2.24-1.14-4.08-3.25-4.08S71.05,52.21,71.05,54.49Z"/><path class="cls-2" d="M80.85,52.14c0-.84,0-1.64,0-2.4h.93c0,.31.06,1.54,0,1.81a3.11,3.11,0,0,1,3.15-2c1.69,0,3.19,1,3.19,3.58v6.15h-1v-6c0-1.69-.7-2.79-2.35-2.79-2.26,0-3,1.88-3,3.95v4.84h-1Z"/><path class="cls-2" d="M89.78,49.74h1.77v-3h1v3h2.26v.9H92.5v6.17c0,1.06.22,1.67,1.14,1.67a3.73,3.73,0,0,0,1-.11v.83a3.16,3.16,0,0,1-1.17.17c-1.22,0-1.9-.6-1.9-2.12V50.64H89.78Z"/><path class="cls-2" d="M100.84,53.92v.93H96.05v-.93Z"/><path class="cls-2" d="M103.9,54.61c0,2.45,1.25,4,3.07,4a2.68,2.68,0,0,0,2.74-1.79h1a3.65,3.65,0,0,1-3.74,2.68c-2.89,0-4-2.49-4-4.9,0-2.72,1.35-5.06,4.12-5.06,2.92,0,3.86,2.53,3.86,4.32,0,.26,0,.53,0,.78Zm6-.84c0-1.88-1-3.36-2.91-3.36s-2.85,1.37-3.06,3.36Z"/><path class="cls-2" d="M113.22,52.14c0-.84,0-1.64,0-2.4h.93c0,.31,0,1.54,0,1.81a3.09,3.09,0,0,1,3.15-2c1.69,0,3.19,1,3.19,3.58v6.15h-1v-6c0-1.69-.7-2.79-2.36-2.79-2.26,0-3,1.88-3,3.95v4.84h-1Z"/><path class="cls-2" d="M131,45.24V56.51c0,.91,0,1.78,0,2.73h-.91c0-.23-.06-1.12-.06-1.59a3.12,3.12,0,0,1-3.19,1.82c-2.47,0-4-2-4-4.86s1.61-5.1,4.2-5.1c1.89,0,2.65.82,2.94,1.43v-5.7Zm-7.09,9.33c0,2.6,1.35,4,3,4,2.5,0,3.19-1.73,3.19-4.32s-.59-3.85-3-3.85C125.16,50.41,123.88,51.91,123.88,54.57Z"/><path class="cls-2" d="M139.33,45.94h4.41c3.64,0,6.17,2.55,6.17,6.54s-2.47,6.76-6.19,6.76h-4.39Zm1,12.35h3.21c3.51,0,5.24-2.47,5.24-5.75,0-2.93-1.56-5.65-5.24-5.65h-3.21Z"/><path class="cls-2" d="M152.74,54.61c0,2.45,1.26,4,3.08,4a2.68,2.68,0,0,0,2.74-1.79h1a3.65,3.65,0,0,1-3.75,2.68c-2.88,0-4-2.49-4-4.9,0-2.72,1.34-5.06,4.12-5.06s3.85,2.53,3.85,4.32c0,.26,0,.53,0,.78Zm6-.84c0-1.88-1.05-3.36-2.91-3.36s-2.85,1.37-3.06,3.36Z"/><path class="cls-2" d="M162.11,49.74c1.54,4.35,2.6,7.32,3,8.53h0c.21-.7,1.28-3.53,3.12-8.53h1l-3.59,9.5h-1.14l-3.39-9.5Z"/><path class="cls-2" d="M171.29,54.61c0,2.45,1.25,4,3.08,4a2.67,2.67,0,0,0,2.73-1.79h1a3.65,3.65,0,0,1-3.74,2.68c-2.89,0-4-2.49-4-4.9,0-2.72,1.35-5.06,4.12-5.06,2.93,0,3.86,2.53,3.86,4.32,0,.26,0,.53,0,.78Zm6-.84c0-1.88-1-3.36-2.91-3.36s-2.85,1.37-3.05,3.36Z"/><path class="cls-2" d="M180.69,59.24v-14h.95v14Z"/><path class="cls-2" d="M192.45,54.47c0,2.64-1.46,5-4.29,5-2.57,0-4.16-2.11-4.16-5,0-2.71,1.5-5,4.25-5C190.78,49.51,192.45,51.49,192.45,54.47Zm-7.44,0c0,2.26,1.21,4.09,3.23,4.09s3.21-1.69,3.21-4.09c0-2.24-1.14-4.08-3.25-4.08S185,52.21,185,54.49Z"/><path class="cls-2" d="M195.76,57.84V63h-.95v-11c0-.78,0-1.62,0-2.34h.93c0,.36,0,.93,0,1.71a3.49,3.49,0,0,1,3.34-1.94c2.24,0,3.8,1.89,3.8,4.74,0,3.41-1.82,5.22-4.12,5.22A3.11,3.11,0,0,1,195.76,57.84Zm6.14-3.56c0-2.2-1.07-3.85-3-3.85-2.3,0-3.25,1.44-3.25,4s.74,4.13,3.12,4.13C200.79,58.58,201.9,56.9,201.9,54.28Z"/><path class="cls-2" d="M205.6,54.61c0,2.45,1.26,4,3.08,4a2.7,2.7,0,0,0,2.74-1.79h1a3.64,3.64,0,0,1-3.74,2.68c-2.89,0-4-2.49-4-4.9,0-2.72,1.35-5.06,4.12-5.06,2.93,0,3.86,2.53,3.86,4.32,0,.26,0,.53,0,.78Zm6-.84c0-1.88-1-3.36-2.9-3.36s-2.85,1.37-3.06,3.36Z"/><path class="cls-2" d="M214.93,52.33c0-1.6,0-2.28,0-2.59h.93c0,.31,0,.91,0,2.13a3.62,3.62,0,0,1,3.31-2.36v1a3.43,3.43,0,0,0-3.31,3.76v4.94h-.95Z"/><path class="cls-2" d="M229.58,54.51l-8.44,4.75V58.14l7.34-4-7.34-4.21V48.77l8.44,4.87Z"/><path class="cls-2" d="M15.44,31.78c.56,2.49,2.35,3.58,5.22,3.58s4.09-1.13,4.09-3c0-2-1.19-2.89-5.44-3.88-6.75-1.58-8.42-4-8.42-7.39,0-4.33,3.23-7.26,9.11-7.26,6.59,0,9.21,3.54,9.57,7.17H24.16c-.26-1.53-1.1-3.19-4.3-3.19-2.18,0-3.49.9-3.49,2.66s1.05,2.43,5.06,3.36c7.22,1.7,8.8,4.38,8.8,7.88,0,4.53-3.43,7.64-10,7.64-6.3,0-9.62-3.1-10.21-7.62Z"/><path class="cls-2" d="M39.4,18.63H31.86V14.24H52.29v4.39H44.77V39.05H39.4Z"/><path class="cls-2" d="M72.69,28.35H60.82v6.3H73.91l-.63,4.4H55.61V14.24h17.6v4.39H60.82V24H72.69Z"/><path class="cls-2" d="M84.59,39.05,75.83,14.24H81.6L85.29,25.7c1.12,3.47,2,6.41,2.54,9h.08a91.7,91.7,0,0,1,2.65-8.87l3.87-11.54h5.48l-9,24.81Z"/><path class="cls-2" d="M120,28.35H108.12v6.3h13.1l-.64,4.4H102.92V14.24h17.59v4.39H108.12V24H120Z"/><path class="cls-2" d="M125.06,39.05V14.24h6.65c3.1,5.57,8.83,15.62,10,18.32h.07c-.28-2.59-.28-6.9-.28-11V14.24h4.86V39.05H140c-2.67-4.85-9-16.39-10.25-19.26h-.07c.18,2.17.24,7.27.24,11.71v7.55Z"/><path class="cls-2" d="M161,14.24h5.3V25.31c1.64-1.91,6.75-7.51,9.88-11.07h6.43l-10,10.31,10.33,14.5h-6.44l-7.61-11-2.62,2.5v8.52H161Z"/><path class="cls-2" d="M185.54,14.24h5.36V34.65h12.36l-.61,4.4H185.54Z"/><path class="cls-2" d="M211.82,14.24V39.05h-5.37V14.24Z"/><path class="cls-2" d="M234.83,28.35H223v6.3h13.1l-.64,4.4H217.76V14.24h17.59v4.39H223V24h11.87Z"/><path class="cls-2" d="M245.14,29.12v9.93H239.9V14.24h10.9c5.41,0,8.32,3,8.32,6.81a5.94,5.94,0,0,1-3.6,5.87c1.23.45,3.08,1.73,3.08,6.18v1.22a19.81,19.81,0,0,0,.36,4.73h-5.09a17.57,17.57,0,0,1-.52-5.57v-.36c0-2.72-.68-4-4.68-4Zm0-4.27h4.5c2.94,0,4.07-1.12,4.07-3.19s-1.32-3.15-3.94-3.15h-4.63Z"/></g></g></svg>